<mxfile host="Electron" modified="2023-04-26T12:51:20.755Z" agent="Mozilla/5.0 (Windows NT 10.0; Win64; x64) AppleWebKit/537.36 (KHTML, like Gecko) draw.io/21.2.1 Chrome/112.0.5615.87 Electron/24.1.2 Safari/537.36" etag="cqUlAiyOGCepgk2M-km8" version="21.2.1" type="device">
  <diagram name="Page-1" id="VcUktaGffmm4VJHGm6J6">
    <mxGraphModel dx="1634" dy="726" grid="1" gridSize="10" guides="1" tooltips="1" connect="1" arrows="1" fold="1" page="0" pageScale="1" pageWidth="850" pageHeight="1100" math="0" shadow="0">
      <root>
        <mxCell id="0" />
        <mxCell id="1" parent="0" />
        <mxCell id="m4T8zVkG21rNKowWo_u2-1" value="&lt;font style=&quot;font-size: 20px;&quot;&gt;Online&lt;br&gt;Entrance&amp;nbsp;&lt;br&gt;Preparation&lt;/font&gt;" style="ellipse;whiteSpace=wrap;html=1;aspect=fixed;" vertex="1" parent="1">
          <mxGeometry x="280" y="110" width="220" height="220" as="geometry" />
        </mxCell>
        <mxCell id="m4T8zVkG21rNKowWo_u2-2" value="&lt;font style=&quot;font-size: 20px;&quot;&gt;User&lt;/font&gt;" style="rounded=0;whiteSpace=wrap;html=1;" vertex="1" parent="1">
          <mxGeometry x="-60" y="40" width="160" height="80" as="geometry" />
        </mxCell>
        <mxCell id="m4T8zVkG21rNKowWo_u2-3" value="&lt;font style=&quot;font-size: 20px;&quot;&gt;Admin&lt;/font&gt;" style="rounded=0;whiteSpace=wrap;html=1;" vertex="1" parent="1">
          <mxGeometry x="680" y="40" width="160" height="80" as="geometry" />
        </mxCell>
        <mxCell id="m4T8zVkG21rNKowWo_u2-4" value="" style="endArrow=classic;html=1;rounded=0;entryX=0.5;entryY=1;entryDx=0;entryDy=0;exitX=0;exitY=0.5;exitDx=0;exitDy=0;" edge="1" parent="1" source="m4T8zVkG21rNKowWo_u2-1" target="m4T8zVkG21rNKowWo_u2-2">
          <mxGeometry width="50" height="50" relative="1" as="geometry">
            <mxPoint x="20" y="300" as="sourcePoint" />
            <mxPoint x="370" y="280" as="targetPoint" />
            <Array as="points">
              <mxPoint x="20" y="220" />
            </Array>
          </mxGeometry>
        </mxCell>
        <mxCell id="m4T8zVkG21rNKowWo_u2-6" value="" style="endArrow=classic;html=1;rounded=0;entryX=0.5;entryY=1;entryDx=0;entryDy=0;exitX=1;exitY=0.5;exitDx=0;exitDy=0;" edge="1" parent="1" source="m4T8zVkG21rNKowWo_u2-1" target="m4T8zVkG21rNKowWo_u2-3">
          <mxGeometry width="50" height="50" relative="1" as="geometry">
            <mxPoint x="590" y="260" as="sourcePoint" />
            <mxPoint x="640" y="210" as="targetPoint" />
            <Array as="points">
              <mxPoint x="760" y="220" />
            </Array>
          </mxGeometry>
        </mxCell>
        <mxCell id="m4T8zVkG21rNKowWo_u2-7" value="" style="endArrow=classic;html=1;rounded=0;exitX=0.75;exitY=1;exitDx=0;exitDy=0;entryX=0.023;entryY=0.345;entryDx=0;entryDy=0;entryPerimeter=0;" edge="1" parent="1" source="m4T8zVkG21rNKowWo_u2-2" target="m4T8zVkG21rNKowWo_u2-1">
          <mxGeometry width="50" height="50" relative="1" as="geometry">
            <mxPoint x="110" y="240" as="sourcePoint" />
            <mxPoint x="160" y="190" as="targetPoint" />
            <Array as="points">
              <mxPoint x="60" y="186" />
            </Array>
          </mxGeometry>
        </mxCell>
        <mxCell id="m4T8zVkG21rNKowWo_u2-8" value="&lt;font style=&quot;font-size: 15px;&quot;&gt;Register / Login&lt;/font&gt;" style="text;html=1;strokeColor=none;fillColor=none;align=center;verticalAlign=middle;whiteSpace=wrap;rounded=0;" vertex="1" parent="1">
          <mxGeometry x="120" y="150" width="110" height="30" as="geometry" />
        </mxCell>
        <mxCell id="m4T8zVkG21rNKowWo_u2-10" value="&lt;font style=&quot;font-size: 15px;&quot;&gt;Successfully Login / Register&lt;/font&gt;" style="text;html=1;strokeColor=none;fillColor=none;align=center;verticalAlign=middle;whiteSpace=wrap;rounded=0;" vertex="1" parent="1">
          <mxGeometry x="30" y="230" width="200" height="30" as="geometry" />
        </mxCell>
        <mxCell id="m4T8zVkG21rNKowWo_u2-11" value="&lt;font style=&quot;font-size: 15px;&quot;&gt;Add model test&lt;/font&gt;" style="text;html=1;strokeColor=none;fillColor=none;align=center;verticalAlign=middle;whiteSpace=wrap;rounded=0;" vertex="1" parent="1">
          <mxGeometry x="530" y="230" width="200" height="30" as="geometry" />
        </mxCell>
      </root>
    </mxGraphModel>
  </diagram>
</mxfile>
